<?xml version="1.0" encoding="utf-8"?>
<!-- Generator: Adobe Illustrator 19.0.0, SVG Export Plug-In . SVG Version: 6.00 Build 0)  -->
<svg version="1.1" id="Layer_1" xmlns="http://www.w3.org/2000/svg" xmlns:xlink="http://www.w3.org/1999/xlink" x="0px" y="0px"
	 viewBox="0 0 982 351.7" style="enable-background:new 0 0 982 351.7;" xml:space="preserve">
<style type="text/css">
	.st0{fill:#333333;}
	.st1{fill:none;stroke:#333333;stroke-width:8;stroke-miterlimit:10;}
	.st2{fill:#F5EA14;}
	.st3{fill:#606161;}
	.st4{fill:#F9DC04;}
	.st5{fill:#231F20;}
	.st6{font-family:'GLTatishvili12-Normal';}
	.st7{font-size:162.0433px;}
	.st8{font-family:'BPGNinoMtavruli';}
	.st9{font-size:49.7021px;}
</style>
<g>
	<g>
		<path id="XMLID_40_" class="st0" d="M136.6,27.2c0,0,0.5-0.3,1.6-0.8c1-0.5,2.7-1.4,4.6-2.4c2-1,4.4-2.1,7.2-3.3
			c2.8-1.2,6-2.5,9.5-3.9c3.5-1.4,7.4-2.7,11.5-4c4.1-1.3,8.5-2.5,13.1-3.6c4.6-1.1,9.3-2.1,14.2-2.9c4.9-0.8,9.9-1.3,14.9-1.7
			l3.8-0.2c1.2-0.1,2.5,0,3.7-0.1c2.5-0.1,5,0.1,7.4,0.1c4.9,0.3,9.8,0.8,14.4,1.6c1.2,0.2,2.3,0.4,3.4,0.6c1.1,0.3,2.2,0.5,3.3,0.8
			c2.2,0.5,4.3,1.2,6.3,1.8c1,0.3,2,0.7,3,1c1,0.4,1.9,0.7,2.9,1.1c1.9,0.8,3.6,1.6,5.3,2.4c1.7,0.8,3.2,1.7,4.7,2.5
			c0.8,0.4,1.5,0.8,2.1,1.3c0.7,0.4,1.3,0.8,2,1.2c0.6,0.4,1.3,0.8,1.9,1.2c0.6,0.4,1.1,0.8,1.7,1.2c1.1,0.8,2,1.5,2.9,2.1
			c1.7,1.3,3,2.5,3.9,3.2c0.9,0.7,1.4,1.1,1.4,1.1s-0.5-0.4-1.4-1.1c-0.9-0.7-2.2-1.8-4-3c-0.9-0.6-1.9-1.2-3-2
			c-0.5-0.4-1.1-0.7-1.7-1.1c-0.6-0.3-1.2-0.7-1.9-1.1c-0.7-0.4-1.3-0.7-2-1.1c-0.7-0.4-1.4-0.8-2.2-1.1c-1.5-0.7-3.1-1.5-4.8-2.2
			c-1.7-0.7-3.5-1.4-5.4-2.1c-0.9-0.3-1.9-0.6-2.9-0.9c-1-0.3-2-0.7-3-0.9c-2-0.5-4.1-1.1-6.3-1.5c-1.1-0.2-2.2-0.4-3.3-0.6
			c-1.1-0.2-2.2-0.3-3.4-0.5c-4.5-0.6-9.3-0.8-14.1-0.9c-2.4,0.1-4.8,0-7.2,0.2c-1.2,0.1-2.4,0.1-3.6,0.2l-3.6,0.4
			c-4.8,0.6-9.7,1.3-14.3,2.4c-4.7,1-9.3,2.2-13.6,3.5c-4.4,1.3-8.6,2.7-12.5,4.2c-3.9,1.5-7.6,2.9-10.9,4.4c-3.3,1.5-6.4,2.9-9,4.2
			c-2.6,1.3-4.9,2.5-6.8,3.5c-1.9,1-3.2,1.8-4.2,2.4c-1,0.6-1.5,0.9-1.5,0.9L136.6,27.2z"/>
	</g>
	<path class="st1" d="M117.7,293.7c-34.5-28.4-57-72.7-58.1-120.4c-0.5-21.3,3.3-42,10.7-60.9"/>
	<g>
		<path id="XMLID_37_" class="st0" d="M310,285.9c0,0-0.3,0.4-1,1c-0.7,0.7-1.6,1.6-2.9,2.8c-1.3,1.2-2.9,2.5-4.8,4
			c-1.9,1.5-4.1,3.1-6.6,4.7c-2.5,1.6-5.3,3.2-8.3,4.8c-3.1,1.5-6.3,3.1-9.8,4.5c-3.5,1.4-7.1,2.8-10.8,4c-3.7,1.2-7.6,2.3-11.5,3.3
			c-7.7,2-15.6,3.4-23,4.5c-3.7,0.5-7.3,1-10.7,1.3c-3.4,0.3-6.7,0.6-9.7,0.8c-3,0.2-5.7,0.3-8.2,0.4c-2.4,0.1-4.6,0.1-6.3,0.1
			c-1.8,0-3.1,0-4.1,0c-0.9,0-1.4,0-1.4,0l0.3-8c0,0,0.5,0,1.4,0.1c0.9,0.1,2.3,0.2,4,0.2c1.7,0.1,3.8,0.2,6.2,0.2
			c2.4,0.1,5.1,0.1,8,0.1c2.9,0,6.1-0.1,9.5-0.2c3.4-0.1,6.9-0.3,10.6-0.6c7.3-0.6,15.1-1.5,22.8-3c3.9-0.7,7.7-1.6,11.4-2.5
			c3.7-0.9,7.4-2.1,10.8-3.2c3.5-1.2,6.8-2.5,9.9-3.8c3.1-1.4,5.9-2.8,8.5-4.2c2.6-1.4,4.9-2.9,6.9-4.2c2-1.4,3.7-2.6,5-3.7
			c1.4-1.1,2.4-2,3.1-2.6C309.6,286.3,310,285.9,310,285.9z"/>
	</g>
</g>
<polygon class="st2" points="287.5,90.7 333.4,122.8 290.7,133.2 "/>
<circle class="st3" cx="300.5" cy="107.3" r="4"/>
<g>
	<polygon id="XMLID_43_" class="st4" points="283.4,91.3 286.4,160 238.4,115.9 	"/>
</g>
<polygon class="st2" points="179.3,275.6 282.9,164.3 140.3,38 "/>
<g>
	<polyline id="XMLID_35_" class="st4" points="4.7,44.7 154.8,160.6 134.6,37.3 4.7,44.7 	"/>
</g>
<g>
	<polygon id="XMLID_39_" class="st4" points="155.7,172.5 179.7,308.1 125.6,351.7 	"/>
</g>
<text transform="matrix(1 0 0 1 352.271 183.5984)" class="st5 st6 st7">პარტნიორობა</text>
<text transform="matrix(1 0 0 1 352.6577 262.573)" class="st8 st9">ადამიანის უფლებებისთვის</text>
</svg>
