<?xml version="1.0" encoding="utf-8"?>
<!-- Generator: Adobe Illustrator 19.0.0, SVG Export Plug-In . SVG Version: 6.00 Build 0)  -->
<svg version="1.1" id="Layer_1" xmlns="http://www.w3.org/2000/svg" xmlns:xlink="http://www.w3.org/1999/xlink" x="0px" y="0px"
	 viewBox="0 0 981 347.3" style="enable-background:new 0 0 981 347.3;" xml:space="preserve">
<style type="text/css">
	.st0{fill:#333333;}
	.st1{fill:none;stroke:#333333;stroke-width:8;stroke-miterlimit:10;}
	.st2{fill:#F5EA14;}
	.st3{fill:#606161;}
	.st4{fill:#F9DC04;}
	.st5{fill:#231F20;}
	.st6{font-family:'GLTatishvili12-Normal';}
	.st7{font-size:162.0433px;}
	.st8{font-family:'BPGNinoMtavruli';}
	.st9{font-size:49.7021px;}
</style>
<g id="XMLID_155_">
	<g id="XMLID_171_">
		<g id="XMLID_176_">
			<path id="XMLID_456_" class="st0" d="M131.9,22c0,0,0.5-0.3,1.6-0.8c1-0.5,2.7-1.4,4.6-2.4c2-1,4.4-2.1,7.2-3.3
				c2.8-1.2,6-2.5,9.5-3.9c3.5-1.4,7.4-2.7,11.5-4c4.1-1.3,8.5-2.5,13.1-3.6c4.6-1.1,9.3-2.1,14.2-2.9c4.9-0.8,9.9-1.3,14.9-1.7
				l3.8-0.2c1.2-0.1,2.5,0,3.7-0.1c2.5-0.1,5,0.1,7.4,0.1c4.9,0.3,9.8,0.8,14.4,1.6c1.2,0.2,2.3,0.4,3.4,0.6
				c1.1,0.3,2.2,0.5,3.3,0.8c2.2,0.5,4.3,1.2,6.3,1.8c1,0.3,2,0.7,3,1c1,0.4,1.9,0.7,2.9,1.1c1.9,0.8,3.6,1.6,5.3,2.4
				c1.7,0.8,3.2,1.7,4.7,2.5c0.8,0.4,1.5,0.8,2.1,1.3c0.7,0.4,1.3,0.8,2,1.2c0.6,0.4,1.3,0.8,1.9,1.2c0.6,0.4,1.1,0.8,1.7,1.2
				c1.1,0.8,2,1.5,2.9,2.1c1.7,1.3,3,2.5,3.9,3.2c0.9,0.7,1.4,1.1,1.4,1.1s-0.5-0.4-1.4-1.1c-0.9-0.7-2.2-1.8-4-3
				c-0.9-0.6-1.9-1.2-3-2c-0.5-0.4-1.1-0.7-1.7-1.1c-0.6-0.3-1.2-0.7-1.9-1.1c-0.7-0.4-1.3-0.7-2-1.1c-0.7-0.4-1.4-0.8-2.2-1.1
				c-1.5-0.7-3.1-1.5-4.8-2.2c-1.7-0.7-3.5-1.4-5.4-2.1c-0.9-0.3-1.9-0.6-2.9-0.9c-1-0.3-2-0.7-3-0.9c-2-0.5-4.1-1.1-6.3-1.5
				c-1.1-0.2-2.2-0.4-3.3-0.6c-1.1-0.2-2.2-0.3-3.4-0.5c-4.5-0.6-9.3-0.8-14.1-0.9c-2.4,0.1-4.8,0-7.2,0.2c-1.2,0.1-2.4,0.1-3.6,0.2
				l-3.6,0.4c-4.8,0.6-9.7,1.3-14.3,2.4c-4.7,1-9.3,2.2-13.6,3.5c-4.4,1.3-8.6,2.7-12.5,4.2c-3.9,1.5-7.6,2.9-10.9,4.4
				c-3.3,1.5-6.4,2.9-9,4.2c-2.6,1.3-4.9,2.5-6.8,3.5c-1.9,1-3.2,1.8-4.2,2.4c-1,0.6-1.5,0.9-1.5,0.9L131.9,22z"/>
		</g>
		<path id="XMLID_175_" class="st1" d="M113,288.6c-34.5-28.4-57-72.7-58.1-120.4c-0.5-21.3,3.3-42,10.7-60.9"/>
		<g id="XMLID_172_">
			<path id="XMLID_454_" class="st0" d="M305.3,280.8c0,0-0.3,0.4-1,1c-0.7,0.7-1.6,1.6-2.9,2.8c-1.3,1.2-2.9,2.5-4.8,4
				c-1.9,1.5-4.1,3.1-6.6,4.7c-2.5,1.6-5.3,3.2-8.3,4.8c-3.1,1.5-6.3,3.1-9.8,4.5c-3.5,1.4-7.1,2.8-10.8,4
				c-3.7,1.2-7.6,2.3-11.5,3.3c-7.7,2-15.6,3.4-23,4.5c-3.7,0.5-7.3,1-10.7,1.3c-3.4,0.3-6.7,0.6-9.7,0.8c-3,0.2-5.7,0.3-8.2,0.4
				c-2.4,0.1-4.6,0.1-6.3,0.1c-1.8,0-3.1,0-4.1,0c-0.9,0-1.4,0-1.4,0l0.3-8c0,0,0.5,0,1.4,0.1c0.9,0.1,2.3,0.2,4,0.2
				c1.7,0.1,3.8,0.2,6.2,0.2c2.4,0.1,5.1,0.1,8,0.1c2.9,0,6.1-0.1,9.5-0.2c3.4-0.1,6.9-0.3,10.6-0.6c7.3-0.6,15.1-1.5,22.8-3
				c3.9-0.7,7.7-1.6,11.4-2.5c3.7-0.9,7.4-2.1,10.8-3.2c3.5-1.2,6.8-2.5,9.9-3.8c3.1-1.4,5.9-2.8,8.5-4.2c2.6-1.4,4.9-2.9,6.9-4.2
				c2-1.4,3.7-2.6,5-3.7c1.4-1.1,2.4-2,3.1-2.6C304.9,281.1,305.3,280.8,305.3,280.8z"/>
		</g>
	</g>
	<g id="XMLID_158_">
		<polygon id="XMLID_170_" class="st2" points="282.8,85.6 328.7,117.7 286,128 		"/>
		<circle id="XMLID_169_" class="st3" cx="295.8" cy="102.2" r="4"/>
		<g id="XMLID_166_">
			<polygon id="XMLID_461_" class="st4" points="278.8,86.2 281.7,154.8 233.7,110.8 			"/>
		</g>
		<polygon id="XMLID_165_" class="st2" points="174.6,270.4 278.2,159.2 135.6,32.8 		"/>
		<g id="XMLID_162_">
			<polygon id="XMLID_459_" class="st4" points="129.9,32.2 0,39.6 150.1,155.5 			"/>
		</g>
		<g id="XMLID_159_">
			<polygon id="XMLID_457_" class="st4" points="151.1,167.4 175,303 120.9,346.5 			"/>
		</g>
	</g>
	<text id="XMLID_157_" transform="matrix(1 0 0 1 347.584 178.4543)" class="st5 st6 st7">პარტნიორობა</text>
	<text id="XMLID_156_" transform="matrix(1 0 0 1 347.9707 257.4289)" class="st8 st9">ადამიანის უფლებებისთვის</text>
</g>
</svg>
